<svg xmlns="http://www.w3.org/2000/svg" width="12" height="12" viewBox="0 0 12 12">
  <path id="info_FILL0_wght400_GRAD0_opsz48_2_" data-name="info_FILL0_wght400_GRAD0_opsz48 (2)" d="M9.6,13h.9V9.4H9.6ZM10,8.29a.493.493,0,0,0,.352-.135.454.454,0,0,0,.142-.345.5.5,0,0,0-.142-.36.489.489,0,0,0-.7,0,.5.5,0,0,0-.142.36.454.454,0,0,0,.142.345A.493.493,0,0,0,10,8.29ZM10,16a6.086,6.086,0,0,1-2.37-.458A5.807,5.807,0,0,1,4.458,12.37,6.086,6.086,0,0,1,4,10a6.047,6.047,0,0,1,.458-2.355A5.856,5.856,0,0,1,5.725,5.74,5.982,5.982,0,0,1,10,4a6.045,6.045,0,0,1,5.535,8.37,5.956,5.956,0,0,1-1.275,1.9,5.856,5.856,0,0,1-1.905,1.267A6.047,6.047,0,0,1,10,16Zm0-6Zm0,5.1a4.91,4.91,0,0,0,3.6-1.5A4.91,4.91,0,0,0,15.1,10a4.91,4.91,0,0,0-1.5-3.6A4.91,4.91,0,0,0,10,4.9,4.91,4.91,0,0,0,6.4,6.4,4.91,4.91,0,0,0,4.9,10a4.91,4.91,0,0,0,1.5,3.6A4.91,4.91,0,0,0,10,15.1Z" transform="translate(-4 -4)"/>
</svg>
